HIERARCHY
ROOT Hips
{
    OFFSET   0.000000   0.000000   0.000000
    CHANNELS 6 Xposition Yposition Zposition Zrotation Xrotation Yrotation
    JOINT Chest
    {
        OFFSET   0.000000   8.007230   0.000000
        CHANNELS 3 Zrotation Xrotation Yrotation
        JOINT Chest2
        {
            OFFSET   0.000000  22.077100   0.000000
            CHANNELS 3 Zrotation Xrotation Yrotation
            JOINT Neck
            {
                OFFSET   0.000000  23.255100   0.000000
                CHANNELS 3 Zrotation Xrotation Yrotation
                JOINT Head
                {
                    OFFSET   0.000000  14.370100   1.956600
                    CHANNELS 3 Zrotation Xrotation Yrotation
                    End Site
                    {
                        OFFSET   0.000000  19.566000   0.000000
                    }
                }
            }
            JOINT LeftCollar
            {
                OFFSET   3.911900  19.017000  -0.467063
                CHANNELS 3 Zrotation Xrotation Yrotation
                JOINT LeftShoulder
                {
                    OFFSET  10.383700   0.000000   0.000000
                    CHANNELS 3 Zrotation Xrotation Yrotation
                    JOINT LeftElbow
                    {
                        OFFSET  26.662100   0.001193   0.000980
                        CHANNELS 3 Zrotation Xrotation Yrotation
                        JOINT LeftWrist
                        {
                            OFFSET  28.869000  -0.000059  -0.000082
                            CHANNELS 3 Zrotation Xrotation Yrotation
                            JOINT LeftFinger0
                            {
                                OFFSET   2.044650  -2.323450   3.252850
                                CHANNELS 3 Zrotation Xrotation Yrotation
                                JOINT LeftFinger01
                                {
                                    OFFSET   3.088130   0.000000   0.000000
                                    CHANNELS 3 Zrotation Xrotation Yrotation
                                    JOINT LeftFinger02
                                    {
                                        OFFSET   2.639460   0.000000   0.000000
                                        CHANNELS 3 Zrotation Xrotation Yrotation
                                        End Site
                                        {
                                            OFFSET   2.582190   0.000000   0.000000
                                        }
                                    }
                                }
                            }
                            JOINT LeftFinger1
                            {
                                OFFSET   8.364480   0.000000   3.252850
                                CHANNELS 3 Zrotation Xrotation Yrotation
                                JOINT LeftFinger11
                                {
                                    OFFSET   4.646930   0.000000   0.000000
                                    CHANNELS 3 Zrotation Xrotation Yrotation
                                    JOINT LeftFinger12
                                    {
                                        OFFSET   2.323470   0.000000   0.000000
                                        CHANNELS 3 Zrotation Xrotation Yrotation
                                        End Site
                                        {
                                            OFFSET   2.273050   0.000000   0.000000
                                        }
                                    }
                                }
                            }
                            JOINT LeftFinger2
                            {
                                OFFSET   8.364490   0.000016   1.078090
                                CHANNELS 3 Zrotation Xrotation Yrotation
                                JOINT LeftFinger21
                                {
                                    OFFSET   5.111610   0.000000   0.000000
                                    CHANNELS 3 Zrotation Xrotation Yrotation
                                    JOINT LeftFinger22
                                    {
                                        OFFSET   2.788150   0.000016   0.000000
                                        CHANNELS 3 Zrotation Xrotation Yrotation
                                        End Site
                                        {
                                            OFFSET   2.727660   0.000000   0.000000
                                        }
                                    }
                                }
                            }
                            JOINT LeftFinger3
                            {
                                OFFSET   7.899780   0.000015  -1.078090
                                CHANNELS 3 Zrotation Xrotation Yrotation
                                JOINT LeftFinger31
                                {
                                    OFFSET   4.646930   0.000000   0.000000
                                    CHANNELS 3 Zrotation Xrotation Yrotation
                                    JOINT LeftFinger32
                                    {
                                        OFFSET   2.323470   0.000000   0.000000
                                        CHANNELS 3 Zrotation Xrotation Yrotation
                                        End Site
                                        {
                                            OFFSET   2.273050   0.000000   0.000000
                                        }
                                    }
                                }
                            }
                            JOINT LeftFinger4
                            {
                                OFFSET   7.435090   0.000000  -3.252850
                                CHANNELS 3 Zrotation Xrotation Yrotation
                                JOINT LeftFinger41
                                {
                                    OFFSET   3.717550   0.000000   0.000000
                                    CHANNELS 3 Zrotation Xrotation Yrotation
                                    JOINT LeftFinger42
                                    {
                                        OFFSET   1.858770   0.000000   0.000000
                                        CHANNELS 3 Zrotation Xrotation Yrotation
                                        End Site
                                        {
                                            OFFSET   1.818440   0.000000   0.000000
                                        }
                                    }
                                }
                            }
                        }
                    }
                }
            }
            JOINT RightCollar
            {
                OFFSET  -3.911910  19.017000  -0.467062
                CHANNELS 3 Zrotation Xrotation Yrotation
                JOINT RightShoulder
                {
                    OFFSET -10.383700   0.000014   0.000000
                    CHANNELS 3 Zrotation Xrotation Yrotation
                    JOINT RightElbow
                    {
                        OFFSET -26.662100   0.001225   0.001091
                        CHANNELS 3 Zrotation Xrotation Yrotation
                        JOINT RightWrist
                        {
                            OFFSET -28.869000  -0.000020  -0.000085
                            CHANNELS 3 Zrotation Xrotation Yrotation
                            JOINT RightFinger0
                            {
                                OFFSET  -2.044650  -2.323490   3.252850
                                CHANNELS 3 Zrotation Xrotation Yrotation
                                JOINT RightFinger01
                                {
                                    OFFSET  -3.088130   0.000000   0.000000
                                    CHANNELS 3 Zrotation Xrotation Yrotation
                                    JOINT RightFinger02
                                    {
                                        OFFSET  -2.639460   0.000000   0.000000
                                        CHANNELS 3 Zrotation Xrotation Yrotation
                                        End Site
                                        {
                                            OFFSET  -2.582190   0.000000   0.000000
                                        }
                                    }
                                }
                            }
                            JOINT RightFinger1
                            {
                                OFFSET  -8.364480   0.000000   3.252850
                                CHANNELS 3 Zrotation Xrotation Yrotation
                                JOINT RightFinger11
                                {
                                    OFFSET  -4.646930   0.000000   0.000000
                                    CHANNELS 3 Zrotation Xrotation Yrotation
                                    JOINT RightFinger12
                                    {
                                        OFFSET  -2.323470   0.000000   0.000000
                                        CHANNELS 3 Zrotation Xrotation Yrotation
                                        End Site
                                        {
                                            OFFSET  -2.273050   0.000000   0.000000
                                        }
                                    }
                                }
                            }
                            JOINT RightFinger2
                            {
                                OFFSET  -8.364480   0.000000   1.078090
                                CHANNELS 3 Zrotation Xrotation Yrotation
                                JOINT RightFinger21
                                {
                                    OFFSET  -5.111620   0.000000   0.000000
                                    CHANNELS 3 Zrotation Xrotation Yrotation
                                    JOINT RightFinger22
                                    {
                                        OFFSET  -2.788160   0.000000   0.000000
                                        CHANNELS 3 Zrotation Xrotation Yrotation
                                        End Site
                                        {
                                            OFFSET  -2.727660   0.000000   0.000000
                                        }
                                    }
                                }
                            }
                            JOINT RightFinger3
                            {
                                OFFSET  -7.899780   0.000000  -1.078090
                                CHANNELS 3 Zrotation Xrotation Yrotation
                                JOINT RightFinger31
                                {
                                    OFFSET  -4.646930   0.000000   0.000000
                                    CHANNELS 3 Zrotation Xrotation Yrotation
                                    JOINT RightFinger32
                                    {
                                        OFFSET  -2.323470   0.000000   0.000000
                                        CHANNELS 3 Zrotation Xrotation Yrotation
                                        End Site
                                        {
                                            OFFSET  -2.273050   0.000000   0.000000
                                        }
                                    }
                                }
                            }
                            JOINT RightFinger4
                            {
                                OFFSET  -7.435090   0.000000  -3.252850
                                CHANNELS 3 Zrotation Xrotation Yrotation
                                JOINT RightFinger41
                                {
                                    OFFSET  -3.717550   0.000000   0.000000
                                    CHANNELS 3 Zrotation Xrotation Yrotation
                                    JOINT RightFinger42
                                    {
                                        OFFSET  -1.858760   0.000000   0.000000
                                        CHANNELS 3 Zrotation Xrotation Yrotation
                                        End Site
                                        {
                                            OFFSET  -1.818440   0.000000   0.000000
                                        }
                                    }
                                }
                            }
                        }
                    }
                }
            }
        }
    }
    JOINT LeftHip
    {
        OFFSET   9.783030   0.000000   0.000000
        CHANNELS 3 Zrotation Xrotation Yrotation
        JOINT LeftKnee
        {
            OFFSET   0.000063 -41.789100   0.000608
            CHANNELS 3 Zrotation Xrotation Yrotation
            JOINT LeftAnkle
            {
                OFFSET   0.000048 -41.133200  -0.000184
                CHANNELS 3 Zrotation Xrotation Yrotation
                JOINT LeftToe
                {
                    OFFSET   0.000000  -6.358960  14.674500
                    CHANNELS 3 Zrotation Xrotation Yrotation
                    End Site
                    {
                        OFFSET   0.000000   0.000000   3.913200
                    }
                }
            }
        }
    }
    JOINT RightHip
    {
        OFFSET  -9.783030   0.000000   0.000000
        CHANNELS 3 Zrotation Xrotation Yrotation
        JOINT RightKnee
        {
            OFFSET   0.000071 -41.789100   0.001239
            CHANNELS 3 Zrotation Xrotation Yrotation
            JOINT RightAnkle
            {
                OFFSET   0.000037 -41.133200  -0.000166
                CHANNELS 3 Zrotation Xrotation Yrotation
                JOINT RightToe
                {
                    OFFSET   0.000000  -6.358960  14.674500
                    CHANNELS 3 Zrotation Xrotation Yrotation
                    End Site
                    {
                        OFFSET   0.000000   0.000000   3.913200
                    }
                }
            }
        }
    }
}
MOTION
Frames: 5
Frame Time:   0.016667
 -2.636880  89.533200   1.063570  -3.458850 -12.091300  -5.658320   1.210380   7.870670  -0.256155   2.492500  15.734000  -0.691916   1.388750  -0.905569   0.024815   2.274510  -1.819790   7.592830  -6.698600  -2.196360   2.685270 -69.144100  28.778100  -6.151400  -1.652230  -6.127990 -20.362300  16.945700 -12.433500   7.563330  39.054600  33.141200 -57.570700 -33.398200  -0.005307  -0.003431 -11.689900   0.002411  -0.036592 -33.718600   8.196680 -12.056100 -28.294600   0.017074  -0.002332 -19.806200   0.011999   0.001385 -28.781000   1.169210  -2.127700 -42.654400   0.032546   0.007775 -28.406700   0.017741   0.013551 -28.735400   1.167390  -2.128700 -40.232700   0.016080   0.001440 -26.795000   0.009869   0.004316 -33.457100   0.591819  -0.896879 -50.192900   0.011370   0.006026 -33.428400   0.004485   0.004981  12.531400  -0.979676  13.746800  61.476200  25.453800  -4.080470  -3.190820  -4.103670  16.795500 -11.617900 -17.066000  -3.996590 -38.397000  29.863500  60.384800  30.370100   0.004599  -0.009289  10.185100   0.006024  -0.009468  30.161300   7.474020  12.617200  25.354400   0.002300  -0.007630  17.748100   0.000754  -0.002874  28.414900   2.501220   4.611700  36.322600   0.006565  -0.001617  24.190800   0.000589  -0.010387  27.720800   1.665220   3.166630  30.540700  -0.002919   0.004310  20.340200   0.006392   0.003357  34.234000   0.418767   0.608790  51.354400   0.006351   0.002741  34.202000  -0.011034   0.001707   3.105860  15.546400   4.265500   1.008750   0.049838   9.032500  -2.783050  -4.203870   1.423550   0.000000   0.000000  -0.000000   2.899220  14.853400  -0.476198   0.196607   0.584489  -9.133560  -1.201980  -4.098060   0.555756  -0.000000   0.000000   0.000000
 -2.628640  89.533200   1.058840  -3.459420 -12.098700  -5.658480   1.210450   7.870530  -0.256198   2.492630  15.733800  -0.692002   1.382890  -0.905575   0.024827   2.268670  -1.825660   7.585030  -6.699560  -2.190750   2.686720 -69.163800  28.764500  -6.138230  -1.645400  -6.154420 -20.358400  16.955600 -12.515500   7.595220  39.100200  33.221500 -57.668300 -33.389000  -0.005317  -0.003441 -11.689900   0.002410  -0.041439 -33.717200   8.210800 -12.077800 -28.297200   0.025968  -0.013076 -19.808000   0.020048  -0.004783 -28.780100   1.181140  -2.149430 -42.647400   0.055434  -0.006212 -28.406700   0.036136   0.009475 -28.734500   1.179300  -2.150440 -40.232300   0.027368  -0.007931 -26.794800   0.018349   0.000196 -33.450000   0.591831  -0.896996 -50.182200   0.026627   0.001030 -33.421300   0.015027   0.005221  12.538700  -0.979465  13.746300  61.472300  25.448400  -4.066780  -3.172700  -4.119910  16.756700 -11.621400 -17.056700  -3.986950 -38.361700  29.741300  60.424000  30.281000   0.004588  -0.009286  10.140500   0.006015  -0.009468  30.136700   7.489030  12.657000  25.337800   0.002292  -0.007639  17.736500   0.000754  -0.002870  28.413500   2.510220   4.628430  36.321400   0.006560  -0.001595  24.190000   0.000588  -0.010389  27.719900   1.677600   3.189890  30.554000  -0.002921   0.004319  20.349000   0.006384   0.003364  34.243100   0.418721   0.608700  51.368100   0.006344   0.002750  34.211200  -0.011046   0.001711   3.106240  15.546600   4.265390   1.008690   0.059631   9.032250  -2.778920  -4.208850   1.423450  -0.000000   0.000000  -0.000000   2.899420  14.851000  -0.476614   0.193627   0.597969  -9.133580  -1.196770  -4.100660   0.555591   0.000000   0.000000  -0.000000
 -2.615200  89.533100   1.051160  -3.460450 -12.110800  -5.658740   1.210520   7.870330  -0.256286   2.492780  15.733300  -0.692175   1.374210  -0.905613   0.024852   2.259250  -1.833060   7.576560  -6.701660  -2.181790   2.689970 -69.193800  28.745800  -6.118540  -1.636500  -6.181010 -20.350600  16.965500 -12.597400   7.627140  39.160400  33.329800 -57.810600 -33.379800  -0.005326  -0.003451 -11.689900   0.002409  -0.046286 -33.716900   8.233170 -12.111100 -28.302400   0.034861  -0.028802 -19.811700   0.028097  -0.014287 -28.778700   1.199930  -2.183660 -42.640300   0.078322  -0.026555 -28.406800   0.054530   0.001885 -28.733100   1.198060  -2.184680 -40.232000   0.039321  -0.022291 -26.794500   0.029221  -0.006717 -33.442900   0.591852  -0.897212 -50.171500   0.048318  -0.007636 -33.414200   0.030556   0.005461  12.549800  -0.979254  13.745700  61.462900  25.443500  -4.033350  -3.140920  -4.148540  16.672400 -11.623100 -17.047900  -3.956970 -38.308700  29.569600  60.476000  30.174600   0.004560  -0.009272  10.087300   0.005998  -0.009465  30.098800   7.504020  12.696800  25.310300   0.002279  -0.007658  17.717300   0.000753  -0.002862  28.412000   2.519220   4.645170  36.313000   0.006544  -0.001545  24.184500   0.000583  -0.010392  27.718900   1.689980   3.213140  30.567200  -0.002930   0.004341  20.357800   0.006366   0.003380  34.252200   0.418622   0.608573  51.381900   0.006327   0.002771  34.220300  -0.011079   0.001723   3.106500  15.548300   4.265310   1.008640   0.069425   9.032010  -2.771120  -4.213820   1.423350  -0.000000   0.000000   0.000000   2.899680  14.848600  -0.477031   0.188818   0.614257  -9.133590  -1.188520  -4.103260   0.555427  -0.000000   0.000000   0.000000
 -2.605120  89.533100   1.045660  -3.463770 -12.119400  -5.664720   1.210540   7.870220  -0.256396   2.492830  15.733100  -0.692386   1.369840  -0.905845   0.024884   2.252640  -1.834620   7.575770  -6.704690  -2.173980   2.694660 -69.213300  28.738700  -6.107350  -1.630630  -6.173170 -20.342100  16.965100 -12.565400   7.625140  39.171400  33.362400 -57.890400 -33.383700  -0.005322  -0.003434 -11.688500   0.002394  -0.037336 -33.723200   8.251370 -12.132400 -28.310200   0.033175  -0.037989 -19.817200   0.027670  -0.020589 -28.777700   1.213380  -2.208150 -42.646500   0.073436  -0.037984 -28.406700   0.053499  -0.008095 -28.732000   1.211510  -2.209170 -40.246100   0.040097  -0.032877 -26.803900   0.032011  -0.013772 -33.447600   0.591882  -0.897486 -50.178400   0.058799  -0.017316 -33.418900   0.039959   0.005401  12.556800  -0.979797  13.748700  61.450500  25.470300  -3.983110  -3.111780  -4.178900  16.560500 -11.615900 -17.084900  -3.897740 -38.280800  29.497800  60.491300  30.154400   0.004519  -0.009240  10.077200   0.005979  -0.009450  30.075500   7.485000  12.674000  25.288300   0.002268  -0.007683  17.701900   0.000750  -0.002856  28.411200   2.501500   4.612790  36.284300   0.006512  -0.001475  24.165400   0.000570  -0.010395  27.717200   1.678280   3.190890  30.565400  -0.002950   0.004370  20.356500   0.006341   0.003397  34.250100   0.418486   0.608521  51.378700   0.006301   0.002801  34.218200  -0.011131   0.001746   3.103460  15.570900   4.270020   1.008760   0.035985   9.032170  -2.761980  -4.196790   1.427450   0.000000   0.000000   0.000000   2.899180  14.851800  -0.474589   0.185116   0.616133  -9.131400  -1.182570  -4.099700   0.555464  -0.000000   0.000000   0.000000
 -2.595310  89.533000   1.040020  -3.469850 -12.128200  -5.677160   1.210550   7.870170  -0.256513   2.492870  15.733000  -0.692622   1.366130  -0.906209   0.024922   2.245920  -1.835090   7.575650  -6.707590  -2.169520   2.699740 -69.227700  28.737000  -6.099160  -1.624490  -6.160390 -20.332500  16.959400 -12.505400   7.616050  39.168100  33.366900 -57.925600 -33.387600  -0.005300  -0.003400 -11.686000   0.002371  -0.024309 -33.727100   8.262640 -12.148400 -28.315500   0.029026  -0.042194 -19.820900   0.025426  -0.025298 -28.776800   1.224080  -2.227640 -42.652700   0.061987  -0.043058 -28.406700   0.048222  -0.014561 -28.731200   1.222210  -2.228670 -40.260300   0.040207  -0.038474 -26.813400   0.032410  -0.018033 -33.452200   0.591901  -0.897663 -50.185400   0.062845  -0.023326 -33.423500   0.044376   0.004979  12.564000  -0.983656  13.756400  61.435200  25.497300  -3.923740  -3.081580  -4.202770  16.430200 -11.606800 -17.122000  -3.834910 -38.255900  29.466800  60.485300  30.151500   0.004467  -0.009198  10.075800   0.005952  -0.009429  30.056800   7.454040  12.636000  25.268100   0.002257  -0.007715  17.687700   0.000744  -0.002847  28.410000   2.473960   4.562480  36.248900   0.006473  -0.001385  24.141800   0.000555  -0.010400  27.714000   1.659380   3.155120  30.556400  -0.002976   0.004407  20.350500   0.006309   0.003419  34.244900   0.418349   0.608505  51.370800   0.006266   0.002840  34.212900  -0.011200   0.001772   3.099750  15.592000   4.276770   1.008880   0.002545   9.033320  -2.753510  -4.179760   1.435030  -0.000000   0.000000   0.000000   2.897950  14.856400  -0.469311   0.183676   0.618012  -9.127470  -1.177540  -4.096140   0.555741  -0.000000   0.000000   0.000000
